<?xml version="1.0" standalone="no"?>
<!DOCTYPE svg PUBLIC "-//W3C//DTD SVG 20010904//EN"
 "http://www.w3.org/TR/2001/REC-SVG-20010904/DTD/svg10.dtd">
<svg version="1.0" xmlns="http://www.w3.org/2000/svg"
 width="736.000000pt" height="736.000000pt" viewBox="0 0 736.000000 736.000000"
 preserveAspectRatio="xMidYMid meet">

<g transform="translate(0.000000,736.000000) scale(0.100000,-0.100000)"
fill="#000000" stroke="none">
<path d="M0 7351 c0 -12 21 -19 80 -27 34 -5 50 -3 50 5 0 6 -11 11 -24 11
-14 0 -28 5 -31 10 -8 12 -75 13 -75 1z"/>
<path d="M187 7340 c3 -11 10 -23 16 -27 6 -3 7 -1 3 6 -4 6 -2 18 4 26 10 12
9 15 -8 15 -15 0 -19 -5 -15 -20z"/>
<path d="M267 7353 c-17 -17 -2 -30 51 -46 32 -9 72 -17 90 -17 19 0 31 -5 30
-12 -2 -6 5 -14 15 -16 14 -3 17 3 17 31 0 48 -9 67 -31 67 -12 0 -19 -7 -19
-20 0 -11 -3 -20 -8 -20 -4 0 -15 9 -25 20 -12 15 -29 20 -65 20 -27 0 -52 -3
-55 -7z"/>
<path d="M527 7347 c-46 -11 -58 -33 -28 -53 11 -8 21 -20 21 -25 0 -6 -7 -3
-16 5 -8 9 -17 16 -19 16 -8 0 8 -35 22 -52 8 -9 12 -22 8 -27 -3 -6 -1 -11 4
-11 6 0 11 7 11 15 0 8 5 15 10 15 6 0 10 -7 10 -15 0 -9 -13 -18 -31 -22 -28
-5 -30 -8 -15 -18 9 -7 16 -21 16 -33 0 -11 7 -22 15 -26 21 -8 19 -40 -5 -61
-11 -10 -20 -24 -20 -32 0 -11 5 -11 30 2 16 8 36 15 45 15 9 0 15 9 15 26 0
20 4 25 22 22 18 -2 27 8 54 62 40 84 61 101 115 101 24 1 68 7 96 16 29 8 57
12 62 9 5 -4 13 -1 16 4 4 7 19 8 36 5 17 -4 35 -2 42 3 7 5 21 12 32 15 11 2
-27 5 -85 5 -152 1 -143 -1 -136 28 6 22 4 24 -29 24 -24 0 -35 -5 -35 -14 0
-17 -10 -25 -50 -36 -23 -7 -28 -5 -23 6 3 8 17 21 32 29 24 13 17 14 -79 13
-58 -1 -122 -6 -143 -11z m163 -67 c0 -12 -28 -25 -36 -17 -9 9 6 27 22 27 8
0 14 -5 14 -10z"/>
<path d="M1645 7350 c3 -5 15 -10 26 -10 11 0 30 -6 42 -14 41 -26 338 -3 321
26 -3 4 -93 8 -200 8 -128 0 -193 -3 -189 -10z"/>
<path d="M2180 7350 c0 -5 5 -10 10 -10 6 0 10 5 10 10 0 6 -4 10 -10 10 -5 0
-10 -4 -10 -10z"/>
<path d="M2340 7349 c0 -4 -8 -8 -17 -8 -10 0 -39 -1 -65 -1 -27 0 -48 -5 -48
-10 0 -6 8 -10 18 -10 9 0 49 -11 87 -25 76 -27 110 -32 99 -14 -3 6 -15 9
-25 6 -10 -3 -24 1 -30 9 -15 18 -4 31 13 17 20 -16 178 -47 227 -45 26 2 53
-4 67 -13 12 -8 56 -17 98 -20 41 -3 113 -18 160 -33 46 -15 82 -24 80 -20
-10 16 34 50 55 43 17 -5 20 -3 14 11 -4 12 -3 15 5 10 14 -9 57 -18 92 -20
14 -1 32 -5 40 -8 78 -32 236 -41 252 -15 6 9 12 9 29 -1 14 -9 24 -10 28 -4
4 7 16 6 36 -3 49 -23 135 -45 150 -38 8 3 15 0 15 -6 0 -18 30 -12 31 7 0 10
3 12 6 5 9 -25 23 -13 17 15 -5 22 -4 25 7 15 7 -7 22 -13 33 -13 20 0 19 1
-2 16 -12 8 -28 14 -35 11 -6 -2 -23 4 -37 13 -28 19 -128 46 -137 36 -3 -3 8
-9 25 -12 18 -4 30 -10 27 -14 -6 -9 -116 18 -130 32 -7 7 2 8 28 4 25 -5 37
-4 33 3 -3 5 6 14 21 19 l28 9 -27 13 c-14 7 -29 21 -31 31 -6 23 -27 26 -27
4 0 -8 -9 -15 -19 -15 -26 0 -36 17 -14 23 10 3 -1 5 -24 6 -24 0 -43 -3 -43
-9 0 -5 -7 -10 -15 -10 -8 0 -15 5 -15 10 0 6 -7 10 -16 10 -14 0 -15 -7 -10
-40 8 -53 -10 -53 -53 -1 l-33 39 -404 1 c-311 1 -408 -1 -424 -11 -15 -10
-22 -10 -28 -2 -8 13 -112 15 -112 3z m325 -9 c3 -5 -1 -10 -9 -10 -9 0 -16 5
-16 10 0 6 4 10 9 10 6 0 13 -4 16 -10z m670 -50 c3 -5 -3 -10 -15 -10 -12 0
-18 5 -15 10 3 6 10 10 15 10 5 0 12 -4 15 -10z m-225 -20 c0 -5 -2 -10 -4
-10 -3 0 -8 5 -11 10 -3 6 -1 10 4 10 6 0 11 -4 11 -10z m395 0 c3 -5 -1 -10
-9 -10 -8 0 -18 5 -21 10 -3 6 1 10 9 10 8 0 18 -4 21 -10z m-190 -38 c0 -18
-20 -15 -23 4 -3 10 1 15 10 12 7 -3 13 -10 13 -16z m90 -22 c3 -5 -3 -10 -14
-10 -11 0 -23 5 -26 10 -3 6 3 10 14 10 11 0 23 -4 26 -10z"/>
<path d="M3590 7347 c0 -18 45 -20 60 -2 11 13 7 15 -24 15 -23 0 -36 -5 -36
-13z"/>
<path d="M5935 7325 c8 -46 10 -49 24 -40 6 3 11 23 10 43 0 28 -2 32 -8 17
-8 -19 -8 -19 -20 0 -10 17 -11 14 -6 -20z"/>
<path d="M5990 7347 c0 -26 37 -129 71 -199 5 -10 9 -32 9 -48 0 -18 4 -29 10
-25 6 3 10 -2 10 -11 0 -10 2 -15 5 -12 3 3 -2 37 -12 77 -13 53 -14 74 -5 83
8 8 13 -2 18 -40 3 -29 13 -57 20 -63 8 -6 14 -20 14 -30 0 -10 5 -21 11 -25
8 -4 9 1 3 17 -5 13 -8 61 -6 106 3 75 -8 114 -22 77 -10 -26 -23 -7 -31 43
-4 27 -9 52 -12 57 -8 13 -23 -16 -24 -49 -1 -20 -3 -23 -6 -10 -2 11 -6 30
-9 43 -5 24 -44 32 -44 9z"/>
<path d="M2050 7326 c0 -2 7 -9 15 -16 12 -10 15 -10 15 4 0 9 -7 16 -15 16
-8 0 -15 -2 -15 -4z"/>
<path d="M3722 7319 c6 -17 67 -24 81 -10 8 8 6 11 -5 11 -8 0 -30 3 -48 7
-25 5 -32 3 -28 -8z"/>
<path d="M2145 7300 c3 -5 13 -10 21 -10 8 0 12 5 9 10 -3 6 -13 10 -21 10 -8
0 -12 -4 -9 -10z"/>
<path d="M1995 7280 c3 -5 12 -7 20 -3 21 7 19 13 -6 13 -11 0 -18 -4 -14 -10z"/>
<path d="M4029 7259 c-8 -18 -18 -31 -22 -30 -4 1 -17 -8 -27 -21 -16 -20 -19
-20 -20 -5 0 18 -25 24 -34 8 -6 -10 10 -25 37 -34 17 -6 47 18 100 82 22 27
21 31 -1 31 -11 0 -24 -13 -33 -31z"/>
<path d="M2440 7270 c0 -5 5 -10 10 -10 6 0 10 5 10 10 0 6 -4 10 -10 10 -5 0
-10 -4 -10 -10z"/>
<path d="M3855 7260 c-3 -5 -1 -10 4 -10 6 0 11 5 11 10 0 6 -2 10 -4 10 -3 0
-8 -4 -11 -10z"/>
<path d="M4160 7244 c0 -8 5 -12 10 -9 6 4 8 11 5 16 -9 14 -15 11 -15 -7z"/>
<path d="M2 7190 c0 -14 2 -19 5 -12 2 6 2 18 0 25 -3 6 -5 1 -5 -13z"/>
<path d="M5970 7186 c0 -9 5 -16 10 -16 6 0 10 4 10 9 0 6 -4 13 -10 16 -5 3
-10 -1 -10 -9z"/>
<path d="M220 7180 c-12 -7 -12 -12 4 -28 9 -11 29 -23 43 -27 19 -4 24 -11
20 -26 -7 -26 23 -42 57 -29 24 9 34 29 20 43 -4 3 -16 -1 -28 -9 -26 -16 -36
-10 -36 23 0 16 -8 27 -25 33 -14 5 -25 14 -25 20 0 12 -10 13 -30 0z"/>
<path d="M135 7140 c-4 -6 -3 -16 3 -22 6 -6 12 -6 17 2 4 6 3 16 -3 22 -6 6
-12 6 -17 -2z"/>
<path d="M5987 7108 c3 -24 11 -56 18 -73 7 -16 19 -47 25 -68 8 -27 15 -36
22 -29 13 13 -18 155 -40 190 -22 34 -31 27 -25 -20z"/>
<path d="M191 7121 c-9 -6 -10 -11 -2 -15 13 -8 31 1 31 15 0 11 -11 11 -29 0z"/>
<path d="M34 7093 c-3 -10 -9 -27 -13 -38 -5 -11 -3 -38 4 -60 9 -33 9 -43 -2
-53 -19 -19 -16 -50 7 -64 23 -15 27 -48 5 -48 -8 0 -15 6 -15 14 0 8 -5 18
-10 21 -6 4 -10 -38 -10 -119 l0 -125 31 6 c25 5 31 3 27 -8 -3 -8 -17 -14
-32 -14 -26 1 -26 0 -24 -57 2 -48 5 -58 20 -58 11 0 18 7 18 18 0 29 9 32 43
14 38 -20 47 -31 41 -47 -3 -7 5 -15 17 -18 l23 -6 -24 -24 c-15 -14 -29 -20
-36 -15 -7 5 -17 2 -24 -7 -9 -11 -22 -14 -46 -9 -46 8 -48 -21 -3 -31 24 -5
30 -11 26 -26 -4 -14 1 -21 19 -25 26 -7 32 -31 10 -40 -7 -3 -25 -6 -40 -8
-48 -5 -51 -23 -4 -23 39 0 150 -31 164 -46 10 -10 -29 -43 -63 -55 -24 -8
-36 -7 -49 3 -10 7 -24 11 -30 8 -7 -2 -15 0 -19 6 -12 21 -27 11 -21 -14 5
-18 2 -25 -9 -25 -11 0 -15 -11 -15 -40 0 -40 13 -53 24 -24 3 8 11 12 16 9 8
-5 7 -11 -1 -21 -14 -17 -5 -18 22 -3 16 8 29 7 53 -5 26 -12 40 -13 67 -5 19
6 52 15 74 19 22 5 50 11 63 15 18 6 21 4 16 -9 -4 -10 -1 -16 9 -16 8 0 17 5
19 11 2 6 24 14 48 19 61 11 260 4 274 -10 8 -8 4 -10 -16 -5 -33 8 -35 2 -7
-26 16 -16 23 -18 35 -8 8 6 14 18 14 25 0 18 12 18 57 -1 43 -18 53 -13 28
15 -18 20 -15 24 16 21 21 -2 23 48 3 56 -22 8 -17 21 15 37 27 14 30 14 51
-9 12 -13 19 -28 16 -33 -3 -5 1 -15 9 -22 23 -19 19 -50 -7 -50 -12 0 -18 -3
-14 -7 4 -5 18 -8 29 -8 13 0 22 -6 22 -15 0 -10 11 -15 35 -15 19 -1 42 -5
50 -10 8 -5 20 -10 25 -10 6 0 38 -14 71 -31 41 -21 70 -30 88 -27 14 3 26 8
26 10 0 9 -43 43 -54 43 -6 0 -5 4 2 9 10 6 9 15 -8 44 -12 21 -19 37 -15 37
10 0 45 -41 45 -52 0 -5 4 -6 10 -3 5 3 26 2 45 -4 21 -5 35 -6 35 0 0 5 -6 9
-12 9 -7 0 -26 16 -41 35 -15 19 -34 35 -41 35 -8 0 -19 7 -26 15 -11 13 -8
14 19 9 23 -5 31 -3 31 7 0 8 14 20 30 27 l30 14 -21 17 c-19 15 -20 20 -9 42
7 13 20 29 28 35 12 9 8 10 -16 6 -34 -5 -43 13 -20 36 9 9 6 12 -15 12 -15 0
-27 -4 -27 -10 0 -5 -8 -10 -18 -10 -10 0 -26 -6 -36 -13 -17 -13 -18 -14 -2
-20 10 -4 14 -11 11 -17 -8 -12 -71 -40 -92 -40 -19 0 -29 30 -12 41 10 6 3 9
-22 9 -24 0 -39 -5 -43 -16 -4 -9 -13 -13 -24 -10 -10 4 -27 -1 -38 -9 -29
-22 -64 -19 -64 5 0 15 7 20 25 20 21 0 25 5 25 29 0 17 -4 33 -10 36 -18 11
-10 26 13 23 15 -2 23 -11 25 -28 5 -38 19 -46 42 -25 11 10 20 24 20 31 0 19
47 47 65 40 8 -3 15 -12 15 -21 0 -13 4 -12 22 5 12 11 32 20 45 20 15 0 21 5
17 14 -3 7 2 16 10 19 26 10 1 63 -36 76 -17 6 -32 11 -33 11 -2 0 -5 -9 -8
-19 -6 -24 -52 -55 -67 -46 -7 4 -9 19 -5 36 7 29 6 30 -33 27 -39 -3 -48 -20
-16 -32 8 -3 14 -15 14 -26 0 -13 7 -20 20 -20 11 0 20 -4 20 -10 0 -12 -45
-24 -65 -16 -9 3 -25 0 -35 -6 -17 -11 -23 -9 -42 10 -17 17 -20 24 -10 34 14
14 16 78 2 78 -5 0 -10 -4 -10 -10 0 -5 -8 -10 -17 -10 -13 0 -14 3 -5 12 7 7
12 20 12 30 0 10 5 18 10 18 6 0 10 8 10 17 0 9 7 25 17 35 9 10 13 21 10 24
-9 9 -97 -17 -97 -28 0 -5 -7 -16 -15 -25 -9 -8 -13 -23 -10 -33 3 -10 0 -22
-7 -26 -8 -5 1 -14 27 -26 22 -9 35 -18 28 -18 -7 0 -24 -12 -38 -26 -20 -20
-36 -26 -71 -27 -65 0 -74 16 -25 45 33 20 38 27 28 38 -9 10 -9 11 1 6 8 -5
12 0 12 13 0 28 -5 27 -47 -14 -20 -19 -39 -35 -42 -36 -3 0 -25 -1 -48 -2
-35 -1 -43 -5 -48 -25 -6 -25 -24 -26 -35 -1 -4 8 -12 24 -18 36 -9 18 -7 24
13 37 14 9 25 23 25 31 0 14 -6 16 -50 19 -17 1 -26 34 -13 47 5 5 21 2 37 -7
32 -16 46 -7 46 30 0 14 5 17 25 12 20 -5 97 8 113 20 2 1 -5 11 -16 22 -20
20 -20 20 -31 -4 -15 -33 -51 -32 -51 1 0 14 -4 25 -10 25 -5 0 -10 -11 -10
-25 0 -14 -4 -25 -10 -25 -5 0 -10 14 -10 32 0 29 -2 31 -15 17 -8 -8 -16 -30
-18 -49 -2 -30 -6 -35 -27 -35 -14 0 -30 6 -35 13 -14 18 -3 108 13 104 7 -1
12 7 12 19 0 11 5 29 10 39 8 15 6 24 -10 40 -28 28 -44 21 -48 -18 -2 -18 -7
-32 -11 -32 -4 0 -5 -30 -3 -67 3 -67 3 -67 -12 -39 -13 22 -14 32 -5 43 9 10
9 17 1 25 -7 7 -12 23 -12 37 0 13 -6 40 -12 59 -10 28 -10 36 0 39 17 6 15
30 -3 37 -8 3 -15 17 -15 31 0 26 -15 35 -22 13 -3 -7 -11 9 -18 35 -14 47
-23 56 -35 37 -4 -6 -19 -9 -33 -8 -22 2 -30 -3 -44 -31 -17 -35 -44 -58 -55
-47 -4 3 1 14 9 23 32 37 33 138 2 112 -8 -6 -14 -17 -14 -24 0 -6 -8 -19 -18
-28 -17 -16 -20 -15 -48 6 -20 15 -29 31 -29 51 -1 34 -22 47 -31 19z m118
-215 c-12 -4 -13 -7 -3 -7 8 -1 12 -4 8 -7 -3 -4 -14 -4 -23 0 -15 6 -15 8 1
26 14 16 20 17 26 8 5 -8 2 -16 -9 -20z m138 -49 c0 -5 -4 -9 -10 -9 -5 0 -10
7 -10 16 0 8 5 12 10 9 6 -3 10 -10 10 -16z m70 -5 c0 -11 -5 -14 -16 -10 -9
3 -21 6 -27 6 -16 0 14 20 31 20 6 0 12 -7 12 -16z m-139 -31 c17 -16 29 -21
33 -14 4 6 12 11 18 11 7 0 7 -5 -1 -14 -6 -7 -9 -21 -5 -30 4 -9 1 -16 -6
-16 -10 0 -9 -5 2 -17 9 -10 26 -38 38 -63 13 -25 26 -47 30 -50 4 -3 10 -22
13 -42 7 -43 -7 -58 -43 -48 l-25 6 24 7 c24 6 24 7 8 25 -9 10 -17 24 -17 30
0 7 -4 12 -10 12 -5 0 -10 -4 -10 -10 0 -16 -63 2 -98 28 -20 15 -31 31 -27
39 3 9 -14 32 -42 58 -26 24 -45 46 -43 48 3 2 17 7 31 10 22 6 28 2 40 -26
16 -36 33 -38 34 -4 0 17 5 21 23 19 15 -1 22 2 20 10 -3 7 -17 12 -31 12 -29
-1 -30 0 -21 33 7 26 27 22 65 -14z m129 -23 c0 -11 -4 -20 -10 -20 -5 0 -10
5 -10 11 0 5 -6 7 -12 3 -9 -5 -9 -2 1 9 18 23 31 21 31 -3z m-256 -114 c-5
-14 -9 -15 -15 -4 -7 10 -9 10 -9 1 0 -20 -16 -15 -17 5 -1 9 -2 22 -3 27 -6
30 2 34 25 12 18 -16 24 -29 19 -41z m244 10 c3 -12 -1 -17 -10 -14 -7 3 -15
13 -16 22 -3 12 1 17 10 14 7 -3 15 -13 16 -22z m-270 -98 c-17 -10 -48 -10
-48 0 0 5 14 9 30 9 20 0 26 -3 18 -9z m58 -3 c4 -8 12 -15 20 -15 8 0 14 -4
14 -10 0 -5 -6 -10 -12 -10 -18 1 -48 25 -48 39 0 16 20 14 26 -4z m308 -83
c-3 -20 -7 -47 -8 -59 0 -13 -3 -23 -6 -24 -3 0 -17 -3 -31 -5 -23 -4 -26 -2
-22 20 3 16 10 23 19 19 11 -4 14 5 14 34 0 39 16 67 32 57 4 -3 5 -22 2 -42z
m40 3 c3 -9 0 -15 -9 -15 -16 0 -27 14 -18 24 10 10 21 7 27 -9z m-251 -15
c24 -28 21 -33 -8 -14 -14 9 -25 20 -25 25 0 15 15 10 33 -11z m261 -36 c22
-8 20 -21 -9 -52 -17 -18 -28 -23 -35 -16 -8 8 -6 15 5 24 8 7 15 21 15 31 0
21 1 22 24 13z m146 -23 c-13 -26 -27 -34 -35 -21 -11 18 3 40 25 40 17 0 19
-3 10 -19z m-477 -11 c6 -23 -10 -37 -24 -23 -10 10 -2 43 11 43 4 0 10 -9 13
-20z m427 -40 c0 -5 -4 -10 -10 -10 -5 0 -10 5 -10 10 0 6 5 10 10 10 6 0 10
-4 10 -10z m105 -9 c3 -5 1 -13 -5 -16 -15 -9 -43 3 -35 15 8 13 32 13 40 1z
m95 -1 c0 -5 -4 -10 -9 -10 -6 0 -13 5 -16 10 -3 6 1 10 9 10 9 0 16 -4 16
-10z m-205 -20 c3 -6 -4 -10 -17 -10 -18 0 -20 2 -8 10 19 12 18 12 25 0z
m-393 -30 c15 -14 17 -20 7 -20 -19 1 -50 25 -42 33 9 10 12 9 35 -13z m622
-16 c3 -9 2 -23 -4 -32 -5 -10 -10 -12 -10 -5 0 6 -9 15 -20 18 -11 3 -20 13
-20 21 0 19 46 18 54 -2z m-167 -10 c-3 -3 -12 -4 -19 -1 -8 3 -5 6 6 6 11 1
17 -2 13 -5z m366 -106 c12 -7 25 -17 29 -23 5 -6 8 -5 8 4 0 11 3 11 15 1 18
-15 19 -21 2 -44 -15 -21 -47 -12 -47 15 0 21 -38 51 -53 42 -6 -3 -7 -1 -3 5
9 15 21 15 49 0z m212 -8 c-3 -5 -13 -10 -21 -10 -8 0 -12 5 -9 10 3 6 13 10
21 10 8 0 12 -4 9 -10z m-270 -10 c3 -5 1 -10 -4 -10 -6 0 -11 5 -11 10 0 6 2
10 4 10 3 0 8 -4 11 -10z m203 -130 c8 -13 6 -16 -9 -15 -19 1 -59 32 -59 46
0 12 57 -13 68 -31z"/>
<path d="M5887 7093 c-4 -3 -7 -11 -7 -17 0 -6 5 -5 12 2 6 6 9 14 7 17 -3 3
-9 2 -12 -2z"/>
<path d="M6152 7025 c0 -11 4 -31 8 -45 l8 -25 0 25 c0 14 -3 34 -8 45 l-9 20
1 -20z"/>
<path d="M385 6999 c-4 -6 -5 -13 -2 -16 7 -7 27 6 27 18 0 12 -17 12 -25 -2z"/>
<path d="M563 7000 c-18 -4 -44 -18 -58 -31 -28 -27 -35 -51 -7 -26 10 10 21
14 25 11 4 -4 18 1 31 10 14 9 32 16 41 16 15 0 21 16 8 23 -5 2 -22 1 -40 -3z"/>
<path d="M0 6960 c0 -5 5 -10 10 -10 6 0 10 5 10 10 0 6 -4 10 -10 10 -5 0
-10 -4 -10 -10z"/>
<path d="M437 6952 c-23 -25 -21 -34 4 -30 24 3 47 48 25 48 -7 0 -20 -8 -29
-18z"/>
<path d="M6160 6888 c0 -18 33 -88 42 -88 12 0 10 14 -7 36 -8 10 -15 29 -15
42 0 12 -4 22 -10 22 -5 0 -10 -5 -10 -12z"/>
<path d="M3375 6742 c-103 -18 -339 -125 -462 -209 -58 -39 -60 -44 -38 -63 8
-7 15 -17 15 -22 0 -12 59 -86 124 -156 107 -113 421 -292 515 -292 9 0 27
-10 38 -22 43 -47 53 -95 18 -81 -9 3 -15 -1 -15 -10 0 -13 -13 -12 -92 9
-100 26 -185 66 -259 120 -83 60 -233 226 -280 309 -52 91 -59 102 -81 134
l-17 24 -66 -59 c-127 -110 -195 -204 -290 -394 -40 -80 -102 -258 -142 -410
-36 -139 -37 -132 27 -144 49 -10 55 -14 55 -36 0 -18 -6 -26 -22 -28 -28 -4
-40 -32 -13 -32 11 0 20 -4 20 -9 0 -12 -57 -21 -106 -16 -40 4 -42 3 -47 -28
-3 -18 -21 -104 -40 -192 -27 -119 -37 -194 -41 -294 -4 -73 -9 -138 -13 -144
-3 -6 -10 -44 -14 -86 -4 -42 -21 -155 -38 -251 -17 -96 -33 -186 -36 -200 -2
-14 -2 -19 1 -12 15 34 24 3 24 -82 0 -104 25 -225 59 -279 19 -31 67 -64 78
-53 8 8 -28 67 -37 61 -6 -3 -7 1 -4 9 3 9 1 16 -6 16 -7 0 -9 8 -5 20 3 11 1
54 -5 96 -5 43 -10 145 -10 228 1 83 1 163 0 178 0 14 7 33 15 41 8 9 15 35
16 59 1 81 15 1 23 -132 9 -167 32 -291 69 -370 33 -72 45 -67 28 10 -6 28
-11 100 -11 160 0 91 3 110 15 110 10 0 15 11 15 35 0 34 13 47 23 23 3 -8 6
-6 6 5 1 9 -5 26 -11 37 -10 16 -10 24 1 42 8 12 10 23 5 25 -5 2 -8 41 -6 88
3 65 0 85 -10 86 -7 0 -2 4 10 10 13 5 27 7 32 4 4 -3 14 9 23 26 15 31 15 31
22 8 23 -83 84 -176 168 -259 62 -62 87 -82 87 -68 0 17 5 18 38 11 73 -14
155 2 187 37 10 11 24 20 32 20 7 0 13 9 13 20 0 28 -33 78 -47 73 -16 -6 -17
9 -1 25 8 8 5 14 -16 22 -15 5 -33 10 -40 10 -7 0 -47 18 -89 40 -41 22 -84
40 -94 39 -12 0 -8 -5 13 -14 35 -16 64 -45 44 -45 -10 0 -10 -3 0 -15 17 -20
5 -32 -15 -15 -9 7 -18 10 -21 7 -4 -3 -13 1 -21 9 -8 8 -19 12 -24 8 -5 -3
-14 8 -20 25 -12 35 -25 40 -32 14 -2 -10 -2 -3 0 15 2 19 0 39 -5 45 -13 17
-23 70 -27 152 l-4 70 23 -56 c12 -31 29 -78 36 -104 l14 -49 17 42 c10 23 21
57 25 77 3 19 8 35 11 35 28 0 93 -25 93 -36 0 -8 6 -14 13 -15 60 -3 77 -3
77 1 0 3 -16 20 -35 37 -34 31 -47 51 -24 37 6 -4 34 -8 63 -10 l51 -4 -35 22
c-19 13 -36 26 -38 30 -2 5 -9 8 -16 8 -25 0 -106 107 -121 160 -4 14 11 -2
33 -35 22 -33 56 -75 76 -93 33 -31 39 -33 67 -23 17 6 35 8 40 5 5 -3 9 -1 9
5 0 5 -4 13 -10 16 -5 3 -15 15 -21 26 -10 19 -9 20 12 9 l22 -12 -21 29 c-57
80 -155 313 -138 330 3 3 8 -7 12 -23 4 -15 22 -54 41 -87 18 -32 33 -62 33
-66 0 -3 19 -27 43 -53 23 -26 41 -52 38 -60 -2 -7 0 -10 4 -6 4 4 14 1 22 -7
16 -17 37 -20 28 -5 -3 6 1 10 9 10 21 0 31 -21 15 -31 -11 -6 -10 -9 4 -15 9
-3 24 -3 33 0 15 6 15 8 -1 26 -17 19 -13 40 8 40 7 0 25 -7 41 -15 21 -11 33
-12 40 -5 7 7 8 13 1 18 -25 17 -85 111 -75 117 6 3 36 -16 67 -44 31 -28 62
-51 69 -51 21 0 6 50 -40 128 -44 75 -80 152 -72 152 2 0 28 -32 56 -70 54
-73 118 -133 132 -124 4 3 8 16 8 30 0 16 -4 23 -11 18 -7 -4 -10 -1 -7 7 4
12 -33 98 -74 173 -19 35 -45 126 -37 126 5 0 9 -4 9 -9 0 -18 110 -196 146
-236 l36 -40 -32 55 c-47 82 -121 241 -118 251 2 5 33 -41 70 -103 61 -102
126 -188 142 -188 3 0 6 11 6 25 0 14 5 25 10 25 6 0 10 -4 10 -10 0 -5 9 -10
20 -10 23 0 26 10 8 28 -21 21 1 26 25 6 12 -11 30 -26 40 -33 15 -12 17 -12
11 5 -4 10 -10 24 -15 29 -20 27 -259 489 -259 501 1 14 40 -39 40 -53 0 -7 5
-13 10 -13 6 0 10 -4 10 -9 0 -11 109 -196 153 -260 17 -25 30 -50 30 -58 0
-7 6 -13 13 -13 7 0 15 -8 19 -17 10 -32 56 -77 64 -64 4 6 15 9 23 6 9 -4 19
-1 23 4 3 6 11 8 17 5 18 -11 2 47 -47 173 -25 64 -44 120 -42 126 3 10 127
-243 127 -261 0 -6 9 -16 20 -22 15 -8 20 -8 20 3 0 29 -43 182 -66 233 -13
30 -24 60 -24 67 0 22 94 -147 114 -203 10 -30 25 -66 34 -79 14 -23 13 -26
-12 -47 -14 -13 -26 -28 -26 -34 0 -6 -4 -8 -10 -5 -5 3 -10 -1 -10 -9 0 -9
-6 -16 -12 -16 -13 -1 -58 -34 -58 -42 0 -13 53 5 110 37 32 19 47 4 32 -30
-11 -24 -11 -25 8 -15 13 7 20 21 20 40 0 39 9 60 26 60 19 0 30 -29 44 -110
6 -36 17 -101 24 -145 25 -142 27 -173 27 -326 l0 -150 -48 -48 c-26 -27 -67
-61 -91 -76 l-42 -28 -141 7 c-78 4 -154 10 -170 13 -28 5 -29 4 -29 -32 0
-31 -8 -45 -45 -83 -25 -24 -45 -48 -45 -52 0 -9 -77 -79 -110 -101 -14 -9
-48 -38 -76 -65 -28 -27 -70 -65 -94 -84 -24 -19 -96 -87 -160 -150 -63 -63
-151 -146 -194 -185 -43 -38 -87 -80 -99 -92 -11 -13 -30 -23 -41 -24 -12 0
-15 -3 -8 -6 22 -9 -22 -56 -77 -83 -48 -24 -64 -40 -40 -40 7 0 -6 -12 -27
-26 -21 -15 -41 -30 -44 -33 -3 -4 -26 -22 -52 -39 -56 -38 -94 -87 -76 -96 7
-4 3 -4 -10 -2 -14 3 -27 -3 -35 -15 -8 -10 -47 -47 -88 -81 -41 -34 -78 -67
-84 -74 -5 -6 -51 -48 -102 -93 -82 -73 -91 -78 -87 -54 3 18 1 23 -4 15 -11
-17 -101 -44 -123 -37 -19 6 -29 45 -24 90 l4 30 -20 -25 c-10 -14 -35 -48
-54 -77 -20 -29 -40 -55 -45 -58 -6 -4 -7 -11 -4 -17 4 -6 1 -13 -5 -17 -8 -6
-7 -15 5 -37 16 -29 16 -29 10 -2 -5 22 -3 25 14 21 17 -4 20 0 20 25 0 25 24
62 34 51 7 -9 15 -69 8 -68 -34 5 -45 -40 -17 -71 12 -14 11 -22 -11 -68 -14
-29 -29 -52 -34 -52 -6 0 -10 -7 -10 -15 0 -8 -5 -15 -12 -15 -21 0 -46 -31
-41 -50 4 -17 12 -13 50 28 25 26 63 72 86 102 22 30 44 57 49 58 4 2 8 8 8
14 0 14 51 78 63 78 5 0 3 -8 -5 -17 -9 -10 -26 -38 -38 -63 -36 -70 -163
-234 -174 -223 -3 4 -7 -3 -7 -15 -3 -43 -4 -47 -16 -48 -24 -3 -25 -4 -14
-18 12 -14 11 -18 -52 -145 -33 -66 -52 -67 -44 -2 7 60 -7 65 -32 13 -19 -38
-29 -40 -41 -6 -6 14 -14 22 -20 19 -5 -3 -10 -2 -10 4 0 5 5 11 11 13 6 2 13
26 16 53 4 32 15 60 29 78 25 30 31 57 14 57 -5 0 -10 9 -10 20 0 11 5 20 10
20 6 0 10 14 10 31 0 31 25 67 38 54 4 -3 0 -12 -9 -18 -17 -13 -33 -87 -18
-87 5 0 9 8 9 19 0 10 7 24 15 31 8 7 15 18 15 26 0 7 7 19 15 27 7 8 17 28
21 43 7 26 6 28 -9 15 -9 -7 -15 -17 -12 -21 10 -15 -14 -21 -34 -8 -17 10
-23 9 -40 -11 -11 -13 -28 -46 -37 -74 -9 -29 -21 -57 -25 -63 -5 -6 -7 -19
-3 -28 3 -9 1 -23 -6 -31 -6 -8 -9 -19 -6 -24 4 -6 3 -18 -2 -28 -15 -30 -34
-86 -44 -133 -20 -94 -31 -130 -36 -125 -3 3 -5 52 -4 108 2 95 19 177 54 270
6 15 9 30 6 32 -8 8 -114 -146 -142 -207 -15 -31 -40 -71 -55 -87 -25 -27 -36
-31 -79 -31 -57 0 -318 -43 -402 -66 -57 -15 -93 -29 -300 -115 -115 -47 -219
-98 -311 -150 -35 -20 -36 -23 -38 -80 -1 -52 0 -58 16 -52 10 4 20 9 23 13 3
4 34 21 69 38 68 34 161 53 161 33 0 -6 -18 -11 -43 -11 -41 0 -67 -13 -67
-33 0 -5 9 -7 20 -4 11 3 22 2 25 -2 2 -5 27 -6 54 -3 32 3 64 -1 88 -11 39
-15 103 -16 137 -2 14 6 18 5 14 -6 -2 -8 -14 -15 -26 -17 -18 -3 -21 -9 -18
-34 2 -17 10 -34 17 -39 27 -16 102 -22 136 -10 38 14 53 8 53 -21 l0 -21 23
20 c12 11 42 31 67 43 25 13 61 36 80 52 83 70 389 285 514 362 49 29 81 56
87 73 3 9 12 17 20 18 8 2 39 14 69 28 92 43 130 56 130 46 0 -5 -6 -9 -13 -9
-15 0 -69 -42 -106 -83 -14 -15 -45 -37 -70 -48 -35 -15 -42 -22 -31 -29 12
-7 12 -12 2 -22 -6 -6 -12 -16 -12 -20 0 -13 28 -9 37 5 13 20 131 117 142
117 6 0 11 5 11 10 0 6 7 10 15 10 8 0 15 4 15 10 0 5 26 24 58 43 59 35 90
42 215 53 45 4 67 10 67 19 0 7 17 17 38 22 28 7 41 17 54 43 10 19 16 46 14
60 -5 28 49 104 66 94 7 -4 8 -2 4 4 -4 7 -2 12 4 12 6 0 16 12 22 26 7 14 45
49 86 78 40 28 93 65 117 82 24 18 68 37 97 44 29 7 71 21 93 31 22 9 51 20
65 24 53 15 177 70 251 113 20 11 47 26 60 34 13 7 26 15 29 18 16 17 62 39
114 55 52 17 68 17 142 7 78 -12 121 -25 189 -58 35 -17 41 -20 165 -99 52
-33 116 -71 143 -85 26 -13 47 -28 47 -31 0 -7 53 -30 75 -33 78 -13 104 -20
99 -27 -3 -5 2 -12 10 -15 9 -3 16 -10 16 -15 0 -4 14 -30 30 -56 22 -35 30
-42 30 -26 0 12 -5 34 -10 50 l-10 28 20 -24 c11 -13 20 -29 20 -37 0 -8 4
-14 8 -14 23 0 110 -229 96 -251 -3 -6 0 -16 6 -24 7 -8 9 -22 6 -32 -8 -20
-43 47 -82 156 -30 82 -20 23 12 -76 13 -39 24 -93 24 -120 1 -26 2 -60 2 -75
1 -15 7 -29 14 -32 14 -6 20 -56 7 -56 -5 0 -21 9 -37 19 -16 11 -34 17 -41
15 -17 -7 -119 43 -148 72 -13 13 -72 48 -130 78 -59 31 -130 73 -159 95 -58
43 -133 89 -160 98 -10 3 -18 9 -18 14 0 15 -32 10 -52 -8 -17 -16 -20 -15
-46 4 -15 11 -28 30 -30 42 -2 11 -10 21 -18 21 -8 0 -12 5 -9 10 10 16 -21
12 -35 -5 -14 -17 -75 -20 -85 -5 -9 15 -55 12 -55 -4 0 -8 -12 -17 -26 -20
-14 -4 -44 -19 -67 -33 -81 -52 -171 -93 -181 -83 -17 17 -28 11 -21 -10 5
-16 2 -20 -14 -20 -23 0 -108 -37 -117 -51 -3 -5 -13 -9 -23 -9 -11 0 -29 -9
-42 -21 l-24 -20 36 6 c75 12 196 8 227 -8 18 -8 34 -11 39 -6 12 12 124 -10
146 -29 9 -9 27 -17 40 -18 54 -7 79 -13 100 -27 25 -16 76 -31 94 -28 7 1 29
-5 49 -14 20 -8 46 -15 58 -15 11 -1 59 -16 106 -34 47 -18 87 -29 88 -24 2 5
10 4 18 -2 28 -24 89 -50 117 -50 21 0 28 -4 24 -14 -4 -11 -1 -13 10 -9 11 4
14 2 9 -5 -4 -7 -1 -12 8 -12 8 0 18 5 21 10 3 6 1 10 -6 10 -7 0 -10 3 -6 6
3 4 29 -5 57 -20 28 -15 55 -24 60 -21 5 3 12 -4 15 -16 4 -11 13 -18 20 -15
7 2 15 -4 18 -15 3 -10 13 -22 24 -26 10 -4 26 -17 37 -30 11 -15 24 -22 36
-18 21 7 50 -19 50 -43 1 -23 49 -57 62 -44 6 6 -4 20 -28 40 -42 35 -40 56 2
23 15 -11 32 -21 38 -21 12 0 156 -131 156 -142 0 -8 11 -22 62 -81 37 -43 35
-50 -7 -26 -20 12 -50 25 -68 29 -17 5 -42 12 -54 15 -14 5 -23 3 -23 -4 0 -6
7 -11 15 -11 8 0 15 -4 15 -9 0 -5 9 -13 20 -16 11 -3 20 -15 20 -25 0 -18 80
-110 95 -110 4 0 20 -9 36 -21 16 -11 33 -18 38 -14 5 3 13 0 16 -6 4 -5 13
-8 21 -5 7 3 17 -1 21 -8 5 -8 40 -40 78 -71 39 -32 73 -63 77 -70 4 -7 30
-30 58 -51 28 -21 48 -44 46 -51 -3 -7 1 -10 8 -7 8 3 30 -15 52 -41 73 -87
255 -259 336 -318 54 -40 68 -53 62 -60 -3 -2 26 -35 63 -71 54 -54 65 -69 53
-76 -8 -5 -10 -10 -5 -10 16 0 36 -40 30 -59 -4 -13 -13 -16 -36 -13 -20 3
-34 0 -40 -9 -13 -21 -11 -32 5 -26 7 3 36 -1 62 -8 27 -7 39 -14 27 -14 -28
-1 -41 -21 -14 -21 13 0 21 -7 22 -17 0 -14 3 -13 11 5 15 31 47 30 41 -2 -4
-18 0 -26 16 -31 12 -3 21 -13 21 -21 0 -8 5 -14 11 -14 7 0 8 -11 4 -29 -5
-22 -2 -32 13 -43 11 -7 22 -22 26 -34 5 -16 0 -23 -20 -33 l-27 -12 22 -23
c12 -12 21 -31 20 -42 -1 -10 -1 -27 -1 -36 3 -24 32 -11 32 13 0 10 6 19 14
19 17 0 29 27 16 35 -6 4 -14 3 -20 0 -6 -4 -10 5 -10 20 0 18 4 24 13 18 6
-4 20 -6 29 -5 9 2 19 -6 23 -17 4 -12 12 -18 21 -14 8 3 21 -1 30 -8 9 -7 26
-18 37 -24 12 -5 24 -21 28 -35 5 -22 7 -23 14 -7 6 15 12 12 38 -23 l31 -40
517 0 516 0 10 23 c12 26 189 122 246 132 20 4 38 13 41 21 3 8 10 14 16 14
15 0 12 -38 -3 -47 -20 -12 -30 -45 -16 -54 7 -4 -5 -7 -26 -7 -21 0 -40 -4
-44 -9 -3 -5 -15 -15 -26 -21 -20 -11 -20 -11 1 -12 12 0 27 7 34 15 14 17 30
20 30 5 0 -5 -17 -21 -37 -35 l-38 -25 138 0 137 0 0 194 c0 189 -1 194 -20
189 -11 -3 -20 0 -20 6 0 6 5 11 11 11 5 0 7 5 4 10 -3 6 1 10 9 10 13 0 16
14 15 75 -1 43 -5 75 -11 75 -5 0 -23 -9 -39 -20 -15 -12 -52 -28 -81 -36 -29
-9 -57 -19 -63 -23 -5 -5 -19 -11 -30 -15 -12 -4 -1 12 28 41 43 44 49 47 68
35 18 -12 23 -11 36 7 8 12 20 21 26 21 7 0 18 9 25 20 7 11 19 20 27 20 8 0
15 9 15 19 0 18 -2 19 -27 6 -15 -8 -29 -12 -31 -10 -8 7 9 25 24 25 8 0 19
12 24 26 12 31 14 1544 2 1544 -5 0 -19 -19 -32 -43 -27 -49 -84 -105 -114
-113 -20 -5 -21 -2 -18 40 2 25 10 50 18 57 8 6 14 18 14 25 0 8 5 14 10 14
18 0 10 25 -14 43 -22 17 -24 25 -22 88 1 38 -1 69 -4 69 -9 0 -48 97 -56 138
-5 26 -11 32 -31 32 -20 0 -23 4 -18 20 8 24 -3 25 -32 5 -18 -13 -16 -7 10
36 18 28 49 74 70 102 21 29 40 63 43 77 3 14 11 41 18 60 21 54 37 130 31
141 -16 25 -31 -6 -38 -78 -2 -26 -17 -43 -17 -19 0 11 -7 16 -17 14 -14 -2
-19 5 -21 32 -2 19 -8 39 -13 45 -12 12 -12 -5 2 -101 13 -96 6 -151 -26 -188
-13 -15 -26 -33 -28 -39 -5 -15 -47 20 -47 39 0 7 -6 17 -13 21 -8 4 -22 22
-32 38 -10 17 -30 48 -43 70 -14 22 -36 57 -49 78 -13 20 -34 54 -47 75 -13
20 -39 66 -59 102 -19 36 -54 99 -77 140 -24 41 -64 113 -90 160 -143 259
-315 512 -466 684 -68 77 -276 276 -288 276 -3 0 -26 16 -51 35 -25 19 -75 51
-110 71 -36 19 -65 39 -65 44 0 4 -8 10 -18 12 -20 6 -46 54 -55 103 -4 17 -4
24 -1 18 3 -7 9 -13 14 -13 19 0 -31 120 -77 187 -25 35 -35 63 -23 63 15 0
226 -212 246 -248 16 -27 23 -32 45 -27 23 5 30 1 50 -32 12 -21 24 -40 25
-42 2 -1 7 0 13 4 14 8 1 34 -59 110 -66 85 -175 194 -245 245 -33 25 -85 65
-115 90 -30 25 -66 51 -80 58 -40 20 -161 113 -198 152 -19 19 -53 60 -76 90
-22 30 -44 57 -48 58 -5 2 -8 9 -8 16 0 12 -9 25 -72 104 -37 45 -45 62 -31
62 3 0 15 -7 25 -17 30 -27 33 -6 4 32 -42 54 -15 41 56 -27 62 -61 179 -148
198 -148 6 0 10 -6 10 -12 0 -16 77 -61 90 -53 5 3 8 0 5 -7 -3 -7 13 -29 36
-48 69 -57 123 -115 155 -166 10 -16 21 -31 24 -34 5 -5 17 -26 44 -75 6 -11
22 -33 35 -50 23 -29 24 -29 17 -5 -21 71 -74 184 -120 255 -29 44 -56 87 -61
95 -10 18 38 -22 83 -69 17 -19 32 -31 32 -27 0 11 76 -67 89 -91 10 -19 9
-22 -4 -17 -22 9 -19 -13 5 -33 11 -10 20 -23 20 -31 0 -7 5 -10 11 -6 6 3 8
16 5 28 -3 14 9 6 40 -28 25 -26 48 -45 51 -42 12 11 -43 108 -101 181 -31 39
-66 83 -79 99 -45 59 -325 320 -422 394 -204 156 -331 283 -540 542 -38 47
-72 86 -77 88 -4 2 -17 19 -29 38 -28 46 -241 233 -328 288 -77 50 -205 106
-311 136 -58 17 -107 23 -220 25 -80 1 -153 -1 -164 -5 -10 -3 -37 -4 -60 0
-22 3 -50 4 -61 2z m406 -1107 c45 -86 109 -264 109 -302 0 -16 -6 -23 -20
-23 -17 0 -19 5 -13 32 4 22 3 29 -5 24 -7 -4 -12 -1 -12 10 0 24 -58 191 -86
246 -13 26 -33 71 -45 100 l-20 53 25 -30 c14 -16 44 -66 67 -110z m625 -26
c35 -13 92 -87 99 -130 15 -90 -30 -226 -94 -284 -19 -16 -24 -17 -31 -5 -8
13 -10 12 -10 -1 0 -32 -49 -31 -50 1 0 3 -14 86 -30 185 -25 147 -28 184 -19
203 7 12 19 22 26 22 8 0 21 7 30 15 15 15 26 14 79 -6z m882 -274 c-3 -3 -9
2 -12 12 -6 14 -5 15 5 6 7 -7 10 -15 7 -18z m-903 -329 c8 -27 15 -60 15 -73
0 -13 5 -23 10 -23 6 0 10 29 10 68 0 47 3 63 10 52 5 -8 10 -25 10 -38 0 -41
24 -18 34 31 6 29 15 47 23 47 23 0 25 -25 5 -61 -11 -19 -23 -50 -26 -69 -5
-30 -1 -41 24 -68 16 -18 34 -40 39 -50 8 -14 13 -9 30 31 11 26 24 47 30 47
5 0 16 -17 25 -37 14 -35 16 -36 22 -15 7 24 33 29 52 10 7 -7 32 -20 55 -29
40 -16 42 -19 39 -53 -3 -34 9 -48 23 -26 9 15 25 12 25 -5 0 -8 5 -15 10 -15
6 0 10 9 10 20 0 11 -4 20 -10 20 -5 0 -10 5 -10 11 0 6 12 9 28 7 24 -3 27
-6 24 -37 l-4 -34 34 24 c18 13 35 27 36 31 2 4 9 8 17 8 17 0 38 27 30 40 -4
7 -12 7 -26 0 -15 -8 -30 -6 -64 9 -27 12 -65 19 -93 19 -51 -1 -72 6 -72 24
0 8 28 9 88 5 89 -6 175 -33 185 -59 4 -9 11 -6 25 11 l19 24 7 -38 c4 -21 4
-41 -1 -44 -14 -10 -85 -125 -82 -133 1 -5 -19 -55 -40 -101 -60 -132 -122
-281 -144 -347 -47 -142 -96 -305 -122 -405 -27 -104 -34 -122 -36 -89 0 11
-3 13 -6 6 -2 -7 -13 -17 -23 -22 -17 -9 -18 -7 -8 27 5 20 17 47 25 59 8 13
13 31 10 41 -4 15 -5 14 -6 -4 0 -12 -5 -25 -11 -28 -5 -3 -24 -35 -41 -70
-53 -106 -67 -117 -146 -120 -47 -1 -72 3 -82 12 -7 8 -10 17 -6 21 4 4 10 1
12 -5 7 -21 20 -15 25 11 4 20 1 22 -16 18 -23 -6 -80 -62 -71 -70 3 -3 77 -5
165 -5 l160 0 5 -31 c3 -17 4 -47 1 -66 -3 -19 -5 -41 -5 -47 -1 -7 -8 -13
-17 -13 -12 0 -14 -3 -6 -13 24 -28 -11 -155 -43 -158 -5 -1 1 -4 15 -8 27 -7
37 -42 26 -86 -7 -29 -83 -45 -210 -45 -138 1 -211 14 -241 44 -14 14 -25 28
-25 32 0 3 -10 20 -22 37 -13 18 -23 36 -23 40 0 5 -7 14 -16 20 -19 15 -43
57 -31 57 4 0 13 -5 20 -12 22 -22 14 13 -11 46 -13 17 -27 43 -31 59 -6 25
-3 28 24 34 l31 6 -27 13 c-33 18 -34 18 -34 -3 -1 -17 -1 -17 -11 0 -5 9 -9
43 -7 75 3 65 -3 62 113 49 l60 -7 -34 16 c-51 23 -84 52 -98 85 -6 16 -17 29
-22 29 -13 0 -41 64 -41 91 0 23 23 25 40 4 13 -16 36 -20 43 -7 2 4 2 1 0 -7
-4 -16 42 -91 56 -91 4 0 8 12 7 28 0 15 3 37 7 48 6 17 3 23 -13 27 -12 3
-24 14 -27 25 -3 15 -12 18 -37 15 -21 -2 -38 2 -46 12 -9 10 -9 15 -1 15 6 0
11 7 11 15 0 8 5 15 10 15 6 0 10 -7 10 -15 0 -8 5 -15 10 -15 6 0 10 11 10
24 0 14 -4 28 -10 31 -5 3 -10 14 -10 23 0 12 10 7 35 -20 50 -54 53 -19 4 50
-11 15 -22 20 -35 16 -11 -3 -15 -2 -9 3 6 4 15 17 22 28 6 11 16 19 22 18 6
-2 11 1 11 6 0 5 8 7 18 4 27 -7 45 27 72 137 21 87 23 115 22 340 0 135 -2
304 -5 375 -6 182 10 96 25 -140 23 -348 15 -481 -37 -616 -8 -20 -11 -46 -8
-58 3 -11 1 -21 -4 -21 -6 0 -10 -18 -9 -40 0 -22 4 -40 8 -40 5 0 8 9 8 20 0
21 29 102 40 110 18 14 40 57 40 77 0 13 9 32 20 43 11 11 20 27 20 36 0 8 4
13 9 10 13 -8 23 56 11 68 -7 7 -10 3 -10 -11 0 -12 -4 -25 -10 -28 -14 -9
-12 19 6 90 17 68 28 195 16 195 -13 0 -7 352 7 385 8 18 9 36 4 45 -5 8 -7
23 -5 32 7 32 50 -11 67 -66z m615 24 c0 -5 -2 -10 -4 -10 -3 0 -8 5 -11 10
-3 6 -1 10 4 10 6 0 11 -4 11 -10z m-290 -57 c0 -7 7 -13 15 -13 25 0 28 -27
6 -49 -12 -12 -21 -17 -21 -13 0 4 5 13 12 20 9 9 8 12 -5 12 -9 0 -17 -7 -17
-16 0 -8 -4 -12 -10 -9 -5 3 -10 18 -10 32 0 18 -4 24 -15 19 -8 -3 -15 -4
-15 -2 0 3 -3 11 -6 19 -3 8 2 22 12 31 15 16 18 16 35 0 11 -9 19 -23 19 -31z
m360 -47 c0 -5 -9 -1 -20 9 -11 10 -20 23 -20 28 0 6 -6 18 -12 27 -7 9 2 0
19 -19 18 -20 33 -40 33 -45z m-96 -45 c-10 -11 -58 15 -98 54 -25 24 -46 47
-46 49 0 3 33 -18 74 -47 40 -28 72 -54 70 -56z m-437 83 c-3 -3 -12 -4 -19
-1 -8 3 -5 6 6 6 11 1 17 -2 13 -5z m806 -55 c15 -17 27 -32 27 -34 0 -1 15
-18 33 -37 17 -19 39 -48 47 -64 8 -16 22 -40 32 -54 9 -14 20 -38 24 -55 l7
-30 -24 35 c-14 19 -44 67 -68 105 -24 39 -62 91 -83 118 -44 52 -39 66 5 16z
m-236 -31 c-20 -13 -27 -9 -27 12 0 18 3 19 20 8 14 -9 16 -14 7 -20z m-177
-82 c0 -3 -4 -8 -10 -11 -5 -3 -10 -1 -10 4 0 6 5 11 10 11 6 0 10 -2 10 -4z
m-2523 -118 c-3 -8 -6 -5 -6 6 -1 11 2 17 5 13 3 -3 4 -12 1 -19z m4 -45 c-12
-20 -14 -14 -5 12 4 9 9 14 11 11 3 -2 0 -13 -6 -23z m-200 -123 c-9 -21 -10
-16 -9 30 1 77 12 107 16 45 2 -28 -2 -62 -7 -75z m3319 100 c0 -5 -4 -10 -10
-10 -5 0 -10 5 -10 10 0 6 5 10 10 10 6 0 10 -4 10 -10z m-2878 -151 c46 -47
91 -69 145 -69 57 -1 20 -17 -54 -24 -37 -3 -63 -2 -63 3 0 5 -9 13 -20 16
-11 3 -20 13 -20 21 0 8 -4 14 -10 14 -5 0 -10 11 -10 24 0 14 -4 28 -10 31
-11 7 -14 25 -4 25 4 0 24 -18 46 -41z m148 11 c0 -5 -2 -10 -4 -10 -3 0 -8 5
-11 10 -3 6 -1 10 4 10 6 0 11 -4 11 -10z m1149 -161 c1 -15 -6 -42 -14 -60
l-14 -34 -1 45 c-1 32 -4 39 -9 26 -4 -11 -10 -15 -13 -10 -10 19 -1 103 13
120 13 16 15 14 26 -22 6 -21 12 -51 12 -65z m-1301 46 c-3 -3 -9 2 -12 12 -6
14 -5 15 5 6 7 -7 10 -15 7 -18z m1353 -97 c8 -45 -5 -113 -21 -113 -11 0 -15
12 -15 50 1 54 9 85 24 85 5 0 10 -10 12 -22z m-1871 -134 c0 -43 -4 -74 -10
-74 -6 0 -10 34 -10 81 0 51 4 78 10 74 6 -3 10 -40 10 -81z m1845 -4 c7 -11
-12 -50 -24 -50 -4 0 -6 14 -3 30 4 30 16 39 27 20z m35 -189 c0 -6 -4 -13
-10 -16 -5 -3 -10 1 -10 9 0 9 5 16 10 16 6 0 10 -4 10 -9z m3170 -1056 c-7
-9 -15 -13 -17 -11 -7 7 7 26 19 26 6 0 6 -6 -2 -15z m-3025 -940 c11 -11 27
-29 35 -40 14 -19 14 -19 -5 -6 -36 27 -85 75 -85 84 0 10 23 -6 55 -38z
m-3755 -135 c0 -5 -7 -10 -15 -10 -8 0 -15 5 -15 10 0 6 7 10 15 10 8 0 15 -4
15 -10z m4743 -892 c29 -12 80 -39 115 -60 34 -21 65 -38 68 -38 3 0 20 -11
38 -25 18 -14 47 -28 64 -31 17 -3 39 -15 48 -25 16 -18 16 -19 -4 -19 -12 0
-22 5 -22 12 0 6 -3 9 -6 6 -7 -7 -88 27 -124 52 -14 9 -59 34 -100 56 -41 21
-79 42 -85 46 -72 56 -71 59 8 26z m468 -229 c23 -11 39 -22 36 -25 -2 -2 -17
2 -33 11 -16 8 -34 15 -41 15 -6 0 -15 5 -18 10 -10 16 13 12 56 -11z m1679
-63 c0 -3 -4 -8 -10 -11 -5 -3 -10 -1 -10 4 0 6 5 11 10 11 6 0 10 -2 10 -4z
m-1535 -105 c3 -5 1 -12 -4 -15 -5 -3 -11 1 -15 9 -6 16 9 21 19 6z m98 -52
c15 -6 27 -16 27 -21 0 -6 -6 -5 -15 2 -9 7 -18 10 -22 7 -3 -4 -18 2 -33 13
-16 11 -34 20 -42 20 -10 0 -9 3 2 10 10 6 21 4 35 -6 11 -8 32 -19 48 -25z
m1397 32 c0 -11 -42 -43 -48 -37 -2 2 3 13 10 25 13 21 38 29 38 12z m-1765
-51 c3 -5 2 -10 -4 -10 -5 0 -13 5 -16 10 -3 6 -2 10 4 10 5 0 13 -4 16 -10z
m1825 2 c0 -17 -66 -75 -106 -94 -47 -22 -65 -48 -34 -48 16 0 18 -4 11 -22
-9 -27 -124 -78 -155 -70 -18 5 -16 8 14 33 28 24 31 29 16 35 -14 5 -11 11
19 31 19 13 35 28 35 33 0 5 15 16 33 24 17 8 41 21 52 31 11 9 13 13 5 9 -11
-5 -10 -2 2 12 14 14 21 16 30 6 16 -16 28 -15 28 2 0 14 14 24 38 25 6 1 12
-3 12 -7z m-105 -391 c-3 -6 -11 -11 -17 -11 -6 0 -6 6 2 15 14 17 26 13 15
-4z"/>
<path d="M4592 4800 c0 -14 2 -19 5 -12 2 6 2 18 0 25 -3 6 -5 1 -5 -13z"/>
<path d="M4592 4730 c0 -14 2 -19 5 -12 2 6 2 18 0 25 -3 6 -5 1 -5 -13z"/>
<path d="M4328 4734 c-5 -4 -8 -16 -8 -28 0 -14 3 -17 11 -9 6 6 9 19 7 28 -1
9 -6 13 -10 9z"/>
<path d="M4315 4400 c-3 -5 -1 -10 4 -10 6 0 11 5 11 10 0 6 -2 10 -4 10 -3 0
-8 -4 -11 -10z"/>
<path d="M4137 3919 c-3 -12 -10 -18 -16 -14 -15 8 -14 -6 3 -45 l13 -33 7 39
c4 22 9 47 12 57 3 9 1 17 -4 17 -5 0 -12 -9 -15 -21z"/>
<path d="M4190 3721 c0 -10 -10 -25 -22 -33 l-22 -15 32 -32 c37 -38 38 -41
15 -42 -15 0 -15 -2 2 -9 23 -10 81 -13 72 -4 -3 4 -1 16 5 27 9 17 8 19 -7
13 -13 -4 -16 -2 -11 9 7 20 -11 68 -24 60 -6 -4 -8 -10 -5 -15 3 -4 -1 -11
-7 -13 -7 -3 -2 -6 12 -7 14 -1 19 -4 13 -7 -7 -2 -13 -12 -13 -20 0 -14 -3
-13 -20 2 -11 10 -18 25 -16 34 15 51 17 71 7 71 -6 0 -11 -8 -11 -19z"/>
<path d="M4437 3653 c-4 -3 -7 -17 -7 -31 l0 -24 19 23 c18 23 19 39 2 39 -4
0 -11 -3 -14 -7z"/>
<path d="M6156 6677 c3 -10 9 -15 12 -12 3 3 0 11 -7 18 -10 9 -11 8 -5 -6z"/>
<path d="M660 6571 c0 -12 -3 -21 -7 -21 -11 0 -30 -44 -25 -58 5 -17 22 -15
22 2 0 8 7 16 15 20 17 6 21 61 5 71 -5 3 -10 -3 -10 -14z"/>
<path d="M5874 6563 c3 -10 8 -31 11 -48 10 -44 35 -90 57 -104 31 -19 33 -5
7 31 -29 39 -45 73 -53 111 -4 15 -11 27 -17 27 -6 0 -8 -8 -5 -17z"/>
<path d="M610 6540 c0 -5 5 -10 11 -10 5 0 7 5 4 10 -3 6 -8 10 -11 10 -2 0
-4 -4 -4 -10z"/>
<path d="M892 6528 c6 -18 28 -21 28 -4 0 9 -7 16 -16 16 -9 0 -14 -5 -12 -12z"/>
<path d="M1005 6510 c-3 -5 1 -10 10 -10 9 0 13 5 10 10 -3 6 -8 10 -10 10 -2
0 -7 -4 -10 -10z"/>
<path d="M590 6494 c0 -8 5 -12 10 -9 6 3 10 10 10 16 0 5 -4 9 -10 9 -5 0
-10 -7 -10 -16z"/>
<path d="M15 6310 c-4 -6 -2 -17 4 -23 15 -15 25 -2 13 19 -7 12 -11 13 -17 4z"/>
<path d="M1075 6270 c-3 -6 1 -7 9 -4 18 7 21 14 7 14 -6 0 -13 -4 -16 -10z"/>
<path d="M1652 6251 c-10 -6 -9 -10 7 -14 14 -3 21 0 21 9 0 16 -9 18 -28 5z"/>
<path d="M840 6080 c0 -5 5 -10 11 -10 5 0 7 5 4 10 -3 6 -8 10 -11 10 -2 0
-4 -4 -4 -10z"/>
<path d="M298 6033 c7 -3 16 -2 19 1 4 3 -2 6 -13 5 -11 0 -14 -3 -6 -6z"/>
<path d="M5885 5986 c31 -26 45 -32 45 -18 0 5 -12 15 -27 22 -47 24 -49 23
-18 -4z"/>
<path d="M1341 5991 c-14 -9 31 -43 78 -59 42 -15 44 -13 22 14 -29 36 -78 58
-100 45z"/>
<path d="M6025 5840 c-3 -5 -1 -10 4 -10 6 0 11 5 11 10 0 6 -2 10 -4 10 -3 0
-8 -4 -11 -10z"/>
<path d="M6816 5721 c-3 -5 1 -11 9 -15 8 -3 15 -1 15 4 0 13 -18 22 -24 11z"/>
<path d="M6846 5675 c4 -8 17 -15 29 -15 14 0 31 -11 43 -27 l19 -27 12 22
c10 19 8 23 -28 42 -48 24 -83 27 -75 5z"/>
<path d="M6225 5670 c3 -5 8 -10 11 -10 2 0 4 5 4 10 0 6 -5 10 -11 10 -5 0
-7 -4 -4 -10z"/>
<path d="M6290 5605 c13 -14 29 -25 37 -25 23 0 133 -78 133 -95 0 -3 12 -17
26 -30 15 -14 24 -25 20 -25 -3 0 1 -14 10 -31 8 -17 13 -41 10 -54 -4 -14 4
-40 19 -69 14 -26 25 -54 25 -62 0 -8 7 -17 15 -20 17 -7 105 -127 105 -144 0
-6 16 -35 35 -64 19 -29 35 -64 35 -77 0 -18 3 -20 9 -10 5 7 9 50 10 94 1 85
6 101 22 77 7 -11 8 -5 4 20 -4 19 -12 40 -17 45 -7 7 -8 2 -3 -14 5 -16 3
-22 -5 -19 -6 2 -13 25 -15 51 -1 27 -10 56 -19 65 -8 10 -22 34 -31 55 -8 20
-22 37 -30 37 -17 0 -21 -35 -5 -45 6 -3 10 -11 10 -16 0 -5 -11 -2 -25 7 -19
13 -23 20 -14 30 8 10 3 20 -23 43 -18 17 -36 31 -40 31 -18 0 -56 47 -49 59
6 9 -6 28 -35 58 -24 24 -44 48 -44 53 0 8 -172 100 -187 100 -4 0 4 -11 17
-25z m320 -295 c12 -16 19 -30 15 -30 -3 0 2 -14 10 -30 11 -22 13 -35 6 -48
-7 -11 -11 -12 -11 -4 0 9 -7 11 -21 7 -14 -5 -19 -3 -15 4 4 6 2 20 -4 32
-15 27 -22 99 -10 99 5 0 18 -13 30 -30z"/>
<path d="M7083 5607 c10 -7 28 -20 39 -30 12 -9 24 -14 27 -11 8 8 -51 54 -69
53 -12 0 -11 -3 3 -12z"/>
<path d="M7320 5481 c0 -5 7 -14 15 -21 36 -30 2 -41 -40 -14 -36 24 -31 14
20 -36 l45 -44 0 50 c0 38 -4 52 -20 62 -11 7 -20 8 -20 3z"/>
<path d="M6608 5388 c12 -12 24 -19 28 -15 8 8 -21 37 -38 37 -7 0 -4 -9 10
-22z"/>
<path d="M5590 5099 c7 -11 14 -18 17 -15 8 8 -5 36 -17 36 -7 0 -7 -6 0 -21z"/>
<path d="M6896 4965 c-3 -9 -6 -25 -6 -35 0 -10 -6 -20 -14 -23 -8 -3 -16 -25
-19 -49 -3 -24 -8 -55 -12 -69 -5 -21 -3 -27 14 -32 15 -4 22 -16 27 -48 6
-36 9 -40 19 -26 7 9 16 13 20 9 4 -4 4 40 0 98 -4 58 -9 122 -10 143 -3 43
-10 55 -19 32z"/>
<path d="M7072 4795 c1 -45 6 -79 13 -85 9 -8 12 11 13 75 1 67 -2 85 -12 85
-11 0 -14 -17 -14 -75z"/>
<path d="M3205 4841 c-6 -5 -19 -11 -30 -14 -11 -3 -2 -5 20 -4 22 1 39 6 38
12 -2 14 -17 17 -28 6z"/>
<path d="M2970 4791 c13 -9 13 -11 0 -11 -22 -1 18 -30 41 -30 10 0 25 -7 34
-16 23 -23 32 -8 10 17 -17 17 -17 22 -5 29 11 7 5 10 -22 10 -20 0 -45 3 -55
6 -15 5 -15 4 -3 -5z"/>
<path d="M7273 4668 c2 -21 7 -41 10 -45 11 -10 8 50 -3 67 -8 11 -9 5 -7 -22z"/>
<path d="M7033 4672 c-43 -43 -112 -156 -120 -193 -4 -22 -2 -29 10 -29 17 0
32 -33 36 -75 2 -22 31 -18 31 4 0 10 -7 24 -15 31 -10 8 -12 17 -6 23 16 16
28 -1 41 -54 10 -41 10 -53 0 -59 -8 -5 -10 -18 -4 -41 4 -19 8 -37 8 -41 3
-25 14 -11 20 23 7 44 28 83 39 72 4 -3 7 1 7 10 0 10 -5 14 -15 11 -23 -9
-29 23 -13 64 11 28 12 42 4 55 -8 12 -7 25 3 49 23 57 25 88 6 88 -18 0 -45
-23 -45 -39 0 -6 -4 -11 -10 -11 -15 0 -12 60 3 62 6 1 23 2 37 3 71 5 84 7
70 12 -8 4 -23 17 -33 30 -22 28 -31 29 -54 5z"/>
<path d="M7201 4574 c0 -11 3 -14 6 -6 3 7 2 16 -1 19 -3 4 -6 -2 -5 -13z"/>
<path d="M7276 4564 c-4 -9 -4 -19 -1 -22 2 -3 7 3 11 12 4 9 4 19 1 22 -2 3
-7 -3 -11 -12z"/>
<path d="M2405 4516 c6 -56 14 -74 25 -56 8 12 -9 83 -23 97 -5 4 -6 -14 -2
-41z"/>
<path d="M5867 4459 c6 -44 22 -77 24 -48 3 34 -4 65 -16 78 -11 12 -13 7 -8
-30z"/>
<path d="M2432 4420 c0 -8 4 -26 8 -40 6 -20 8 -21 8 -5 0 11 -3 29 -8 40 -5
12 -8 14 -8 5z"/>
<path d="M2945 4305 c-15 -33 -14 -85 1 -85 8 0 14 6 14 14 0 8 6 16 13 19 9
3 9 7 1 18 -7 8 -14 23 -16 34 l-4 20 -9 -20z"/>
<path d="M7071 4235 c-7 -16 -18 -35 -25 -40 -17 -13 -31 -75 -18 -75 11 0 42
61 42 82 0 8 5 19 11 25 6 6 9 17 6 25 -3 8 -9 1 -16 -17z"/>
<path d="M2700 4246 c0 -2 7 -7 16 -10 8 -3 12 -2 9 4 -6 10 -25 14 -25 6z"/>
<path d="M7327 4243 c-10 -9 -9 -43 1 -43 5 0 14 11 20 25 9 20 9 25 -2 25 -7
0 -16 -3 -19 -7z"/>
<path d="M6957 4226 c-4 -10 -1 -13 8 -9 8 3 12 9 9 14 -7 12 -11 11 -17 -5z"/>
<path d="M2191 4214 c0 -11 3 -14 6 -6 3 7 2 16 -1 19 -3 4 -6 -2 -5 -13z"/>
<path d="M2183 4115 c0 -27 2 -38 4 -22 2 15 2 37 0 50 -2 12 -4 0 -4 -28z"/>
<path d="M7308 4149 c-26 -14 -22 -32 5 -23 29 9 33 12 21 24 -5 5 -16 5 -26
-1z"/>
<path d="M2500 4130 c0 -5 5 -10 11 -10 5 0 7 5 4 10 -3 6 -8 10 -11 10 -2 0
-4 -4 -4 -10z"/>
<path d="M2061 4044 c0 -11 3 -14 6 -6 3 7 2 16 -1 19 -3 4 -6 -2 -5 -13z"/>
<path d="M2590 4050 c0 -5 10 -10 23 -10 18 0 19 2 7 10 -19 13 -30 13 -30 0z"/>
<path d="M2700 4038 c-22 -10 -23 -12 -6 -15 10 -3 26 2 34 11 19 18 8 20 -28
4z"/>
<path d="M2578 3963 c-21 -8 -38 -19 -38 -24 0 -5 -7 -9 -16 -9 -8 0 -12 -4
-9 -10 3 -5 1 -10 -4 -10 -6 0 -11 -4 -11 -10 0 -19 30 -10 59 19 17 16 38 34
48 40 31 17 10 20 -29 4z"/>
<path d="M2448 3943 c6 -2 18 -2 25 0 6 3 1 5 -13 5 -14 0 -19 -2 -12 -5z"/>
<path d="M7160 3931 c0 -14 -6 -21 -20 -21 -11 0 -20 6 -20 13 0 8 -4 7 -10
-3 -9 -13 -12 -13 -25 4 -27 35 -33 7 -14 -66 11 -40 22 -113 25 -163 5 -67
11 -97 26 -118 12 -18 18 -37 14 -52 -4 -14 1 -31 13 -47 11 -13 19 -31 18
-39 0 -8 3 -33 8 -57 7 -37 12 -44 36 -49 36 -7 38 -36 6 -80 -18 -25 -23 -47
-25 -101 -2 -50 1 -69 10 -69 7 0 20 -4 30 -8 11 -4 18 0 23 16 11 34 13 83 4
94 -5 6 0 24 11 40 l20 30 1 -30 c1 -16 8 10 16 58 14 77 14 91 1 103 -12 13
-17 12 -37 -5 -25 -21 -51 -18 -51 7 0 8 11 30 25 48 14 18 25 37 25 43 0 6 4
11 10 11 12 0 42 58 38 72 -2 6 6 21 19 34 17 17 23 34 23 66 l-1 43 -39 -45
c-22 -25 -40 -48 -40 -51 0 -4 -14 -12 -31 -19 -22 -10 -33 -10 -42 -1 -7 7
-7 11 0 11 5 0 24 29 42 64 62 126 85 229 61 266 -9 13 -11 13 -20 0 -5 -8
-10 -20 -10 -26 0 -6 -9 -19 -19 -28 -25 -22 -54 -6 -67 37 -11 36 -34 48 -34
18z"/>
<path d="M2295 3740 c-3 -5 1 -10 9 -10 9 0 16 5 16 10 0 6 -4 10 -9 10 -6 0
-13 -4 -16 -10z"/>
<path d="M1995 3526 c-22 -18 -66 -40 -98 -50 -45 -13 -70 -29 -115 -74 -168
-169 -272 -322 -334 -497 -41 -114 -72 -224 -65 -231 2 -3 26 44 53 103 27 59
69 139 94 178 25 38 61 97 79 129 18 33 48 76 67 95 19 20 34 39 34 44 0 4 28
28 63 53 68 50 148 124 186 170 13 16 39 45 58 65 45 47 30 57 -22 15z"/>
<path d="M7085 3400 c3 -5 11 -10 16 -10 6 0 7 5 4 10 -3 6 -11 10 -16 10 -6
0 -7 -4 -4 -10z"/>
<path d="M1760 3220 c-18 -16 -31 -33 -27 -36 3 -3 12 3 19 15 7 12 18 21 24
21 7 0 14 7 18 15 8 21 4 19 -34 -15z"/>
<path d="M7170 3241 c0 -5 5 -13 10 -16 6 -3 10 -2 10 4 0 5 -4 13 -10 16 -5
3 -10 2 -10 -4z"/>
<path d="M7301 2789 c-13 -17 -21 -32 -19 -34 6 -6 58 44 58 55 0 18 -15 10
-39 -21z"/>
<path d="M1550 2724 c0 -8 5 -12 10 -9 6 3 10 10 10 16 0 5 -4 9 -10 9 -5 0
-10 -7 -10 -16z"/>
<path d="M7250 2730 c0 -5 5 -10 10 -10 6 0 10 5 10 10 0 6 -4 10 -10 10 -5 0
-10 -4 -10 -10z"/>
<path d="M7286 2715 c-28 -26 -46 -32 -46 -15 0 6 -5 10 -11 10 -6 0 -8 -8 -4
-19 3 -11 -1 -24 -11 -32 -15 -12 -16 -11 -10 9 7 22 7 22 -18 -3 -29 -29 -33
-50 -11 -59 8 -3 14 -15 12 -28 -1 -14 4 -23 16 -26 10 -2 17 0 16 5 -6 33 6
64 40 103 29 33 42 42 50 34 15 -14 4 -44 -16 -44 -11 0 -10 -6 6 -29 20 -28
25 -76 10 -96 -15 -20 -22 -95 -10 -95 18 0 12 -30 -6 -30 -17 -1 -17 -2 -1
-13 15 -12 15 -14 -1 -24 -18 -11 -35 -78 -25 -95 12 -20 72 89 73 132 0 8 4
33 10 55 6 22 11 92 11 156 0 98 -3 118 -16 123 -24 9 -29 8 -58 -19z"/>
<path d="M1620 2694 c0 -17 -9 -43 -20 -57 -21 -27 -27 -57 -10 -57 13 0 32
38 25 50 -3 6 1 10 9 10 18 0 22 46 6 70 -7 11 -10 8 -10 -16z"/>
<path d="M7223 2516 c-29 -14 -34 -80 -6 -74 22 4 29 28 8 28 -9 0 -15 6 -12
13 2 6 11 11 21 9 10 -2 16 4 16 18 0 11 -1 19 -2 19 -2 -1 -13 -6 -25 -13z"/>
<path d="M1510 2410 c0 -5 5 -10 11 -10 5 0 7 5 4 10 -3 6 -8 10 -11 10 -2 0
-4 -4 -4 -10z"/>
<path d="M1407 2346 c-4 -10 -5 -21 -2 -24 9 -9 17 6 13 25 -3 17 -4 17 -11
-1z"/>
<path d="M2150 2313 c-19 -41 -30 -84 -20 -78 11 7 44 94 38 100 -3 3 -11 -7
-18 -22z"/>
<path d="M2422 2299 c-7 -11 -17 -32 -23 -46 -8 -23 -8 -24 5 -13 13 10 46 66
46 77 0 10 -17 0 -28 -18z"/>
<path d="M2266 2265 c-9 -26 -7 -32 5 -12 6 10 9 21 6 23 -2 3 -7 -2 -11 -11z"/>
<path d="M2945 2220 c3 -5 18 -10 33 -10 21 0 24 2 12 10 -20 13 -53 13 -45 0z"/>
<path d="M2535 2210 c-3 -5 -2 -10 4 -10 5 0 13 5 16 10 3 6 2 10 -4 10 -5 0
-13 -4 -16 -10z"/>
<path d="M2500 2179 c0 -5 5 -7 10 -4 6 3 10 8 10 11 0 2 -4 4 -10 4 -5 0 -10
-5 -10 -11z"/>
<path d="M3020 2140 c0 -5 14 -10 32 -10 36 0 35 4 -4 14 -17 4 -28 2 -28 -4z"/>
<path d="M3322 2085 c8 -8 142 -55 157 -55 8 0 22 -6 30 -14 19 -16 142 -58
150 -51 10 11 -17 24 -124 60 -60 20 -124 43 -142 51 -29 13 -82 20 -71 9z"/>
<path d="M1325 2023 c-33 -21 -67 -46 -76 -58 -10 -11 -28 -33 -43 -50 -29
-34 -28 -44 4 -18 12 10 34 28 48 40 15 12 39 28 54 34 15 6 30 19 33 28 3 10
17 24 30 31 24 13 34 30 17 30 -4 0 -34 -17 -67 -37z"/>
<path d="M3830 1972 c0 -10 9 -25 20 -35 24 -20 25 -16 5 23 -18 34 -25 38
-25 12z"/>
<path d="M3685 1950 c3 -5 13 -10 21 -10 8 0 12 5 9 10 -3 6 -13 10 -21 10 -8
0 -12 -4 -9 -10z"/>
<path d="M95 1760 c-3 -5 -2 -10 4 -10 5 0 13 5 16 10 3 6 2 10 -4 10 -5 0
-13 -4 -16 -10z"/>
<path d="M4200 1636 c0 -7 9 -16 20 -19 23 -6 26 3 8 21 -16 16 -28 15 -28 -2z"/>
<path d="M606 1565 c-9 -14 -14 -25 -11 -25 6 0 45 38 45 45 0 14 -20 2 -34
-20z"/>
<path d="M429 1194 c-5 -15 -12 -32 -15 -38 -3 -6 4 0 15 13 12 13 21 29 21
37 0 22 -10 16 -21 -12z"/>
<path d="M4810 1090 c0 -16 31 -60 42 -60 5 0 2 7 -6 16 -9 8 -16 22 -16 29 0
8 -4 17 -10 20 -5 3 -10 1 -10 -5z"/>
<path d="M1376 1024 c-4 -14 -5 -29 -2 -31 3 -3 8 7 12 21 3 15 4 29 1 32 -2
3 -8 -7 -11 -22z"/>
<path d="M340 1024 c0 -8 5 -12 10 -9 6 3 10 10 10 16 0 5 -4 9 -10 9 -5 0
-10 -7 -10 -16z"/>
<path d="M105 979 c-4 -6 -5 -13 -2 -16 7 -7 27 6 27 18 0 12 -17 12 -25 -2z"/>
<path d="M1486 965 c-3 -8 -1 -15 4 -15 6 0 10 7 10 15 0 8 -2 15 -4 15 -2 0
-6 -7 -10 -15z"/>
<path d="M1440 871 c0 -25 6 -27 13 -6 4 8 2 17 -3 20 -6 4 -10 -3 -10 -14z"/>
<path d="M1380 775 c0 -28 15 -34 24 -9 10 25 7 34 -9 34 -9 0 -15 -9 -15 -25z"/>
<path d="M1345 690 c-3 -5 -3 -15 1 -21 6 -11 23 6 24 24 0 10 -18 9 -25 -3z"/>
<path d="M5152 618 c6 -18 28 -21 28 -4 0 9 -7 16 -16 16 -9 0 -14 -5 -12 -12z"/>
<path d="M4956 612 c-3 -6 -1 -14 5 -17 15 -10 25 3 12 16 -7 7 -13 7 -17 1z"/>
<path d="M5232 599 c-9 -14 -19 -18 -35 -14 l-22 6 20 -18 c12 -10 24 -26 28
-37 7 -18 8 -18 26 -2 19 17 20 17 24 -6 2 -13 4 -3 4 22 1 64 -21 88 -45 49z"/>
<path d="M4990 571 c0 -11 11 -32 25 -47 20 -22 26 -24 31 -11 6 16 -32 77
-48 77 -4 0 -8 -9 -8 -19z"/>
<path d="M1297 523 c-36 -88 -77 -192 -77 -199 0 -38 94 141 106 204 9 44 -9
41 -29 -5z"/>
<path d="M5298 549 c6 -7 12 -26 12 -41 0 -28 0 -28 26 -12 37 25 29 58 -16
62 -28 3 -33 1 -22 -9z"/>
<path d="M3687 534 c-4 -4 -7 -23 -6 -43 l1 -36 14 34 c14 31 8 61 -9 45z"/>
<path d="M3855 438 c-3 -13 -10 -32 -15 -43 -4 -11 -16 -40 -25 -65 -39 -103
-39 -128 1 -85 26 28 71 33 80 10 10 -24 33 -18 27 6 -5 19 -3 21 20 17 38 -7
33 4 -15 36 -32 21 -43 24 -49 14 -6 -8 -9 -2 -9 19 0 18 6 38 13 44 16 15 10
69 -8 69 -8 0 -16 -10 -20 -22z"/>
<path d="M3697 443 c-7 -13 -8 -304 -1 -375 7 -69 16 -79 29 -31 3 15 15 40
27 55 13 19 18 37 14 52 -4 16 -1 26 9 30 16 6 21 26 6 26 -5 0 -22 -21 -37
-48 -35 -59 -39 -48 -30 103 3 60 6 119 5 130 -1 11 -2 30 -3 43 -1 22 -11 29
-19 15z"/>
<path d="M3920 380 c0 -6 7 -10 15 -10 8 0 15 2 15 4 0 2 -7 6 -15 10 -8 3
-15 1 -15 -4z"/>
<path d="M5120 366 c0 -9 5 -16 10 -16 6 0 10 4 10 9 0 6 -4 13 -10 16 -5 3
-10 -1 -10 -9z"/>
<path d="M2981 245 c-17 -36 -31 -71 -31 -79 0 -7 -18 -48 -40 -90 -33 -63
-37 -75 -20 -66 11 6 20 16 20 22 0 6 6 19 13 27 7 9 19 34 26 56 8 22 24 63
36 90 39 88 45 105 36 105 -5 0 -23 -29 -40 -65z"/>
<path d="M3472 150 c0 -19 2 -27 5 -17 2 9 2 25 0 35 -3 9 -5 1 -5 -18z"/>
<path d="M94 156 c-8 -22 -2 -27 16 -16 12 7 12 12 3 21 -10 10 -14 9 -19 -5z"/>
<path d="M75 103 c-5 -10 -9 -22 -9 -26 -1 -4 -6 -11 -12 -15 -11 -7 -34 -45
-34 -56 0 -3 11 -6 25 -6 14 0 25 6 25 13 0 6 6 24 14 39 14 27 16 52 4 63 -3
3 -9 -2 -13 -12z"/>
<path d="M3461 94 c0 -11 3 -14 6 -6 3 7 2 16 -1 19 -3 4 -6 -2 -5 -13z"/>
<path d="M5432 70 c7 -10 14 -18 15 -16 6 6 -9 36 -18 36 -5 0 -4 -9 3 -20z"/>
<path d="M1097 73 c-2 -4 -8 -23 -12 -42 -9 -43 15 -39 27 4 7 28 -4 57 -15
38z"/>
<path d="M2071 44 c0 -11 3 -14 6 -6 3 7 2 16 -1 19 -3 4 -6 -2 -5 -13z"/>
<path d="M3908 33 c-21 -5 -24 -23 -4 -23 8 0 16 7 20 15 3 8 4 14 3 14 -1 -1
-10 -3 -19 -6z"/>
<path d="M5641 22 c-11 -21 -10 -22 19 -22 16 0 30 5 30 10 0 6 -6 10 -14 10
-8 0 -16 6 -18 12 -3 8 -9 4 -17 -10z"/>
<path d="M4008 3 c7 -3 16 -2 19 1 4 3 -2 6 -13 5 -11 0 -14 -3 -6 -6z"/>
<path d="M6948 3 c7 -3 16 -2 19 1 4 3 -2 6 -13 5 -11 0 -14 -3 -6 -6z"/>
</g>
</svg>
